<svg width="48" height="48" viewBox="0 0 48 48" fill="none" xmlns="http://www.w3.org/2000/svg">
<path fill-rule="evenodd" clip-rule="evenodd" d="M43.0219 -0.000654221H4.45054C2.00274 -0.000654221 -0.000976562 2.00298 -0.000976562 4.45086V43.0222C-0.000976562 45.47 2.00274 47.4737 4.45054 47.4737H43.0219C45.4697 47.4737 47.4734 45.47 47.4734 43.0222V4.45079C47.4734 2.00298 45.4697 -0.000654221 43.0219 -0.000654221ZM26.9866 12.8913H32.4123V6.3844H26.9866C22.8084 6.3844 19.3995 9.79241 19.3995 13.9759V17.2279H15.061V23.7365H19.3986V41.0886H25.9063V23.7365H31.3267L32.4122 17.2279H25.9063V13.9759C25.9063 13.387 26.4031 12.8904 26.9866 12.8904V12.8912V12.8913Z" fill="white"/>
</svg>
