<svg width="47" height="47" viewBox="0 0 47 47" fill="none" xmlns="http://www.w3.org/2000/svg">
<path d="M23.6385 0.0001297C17.2913 0.0001297 16.4927 0.0267504 14.0018 0.140839C12.0638 0.180228 10.1466 0.547991 8.33156 1.22849C6.7716 1.81171 5.35902 2.73093 4.19394 3.92098C3.00496 5.08844 2.0837 6.50017 1.49384 8.0586C0.81308 9.8747 0.44656 11.7935 0.409997 13.7326C0.299711 16.2236 0.269287 17.0184 0.269287 23.3655C0.269287 29.7127 0.295908 30.5037 0.409997 32.9984C0.449385 34.9364 0.817148 36.8536 1.49764 38.6686C2.08374 40.2271 3.00258 41.6391 4.19014 42.8062C5.35658 43.9965 6.76861 44.9179 8.32776 45.5063C10.1444 46.1853 12.0628 46.5518 14.0018 46.5902C16.4927 46.7043 17.2875 46.7309 23.6347 46.7309C29.9818 46.7309 30.7728 46.7043 33.2676 46.5902C35.2065 46.5518 37.125 46.1853 38.9416 45.5063C40.4956 44.9036 41.9069 43.9836 43.0855 42.805C44.2641 41.6264 45.1842 40.215 45.7869 38.661C46.4638 36.845 46.8314 34.9284 46.8746 32.9908C46.9848 30.4999 47.0153 29.705 47.0153 23.3579C47.0153 17.0108 46.9848 16.216 46.8746 13.725C46.8314 11.7862 46.4638 9.86833 45.7869 8.051C45.1999 6.49203 44.2797 5.07996 43.0906 3.91338C41.9262 2.72245 40.5135 1.8031 38.953 1.22088C37.1314 0.541296 35.2077 0.176087 33.2638 0.140839C30.769 0.0267504 29.978 0.0001297 23.6309 0.0001297H23.6385ZM21.5392 4.21001H23.6385C29.8753 4.21001 30.6131 4.23282 33.0774 4.34691C34.5591 4.36378 36.0269 4.6352 37.4166 5.14934C38.4312 5.52415 39.3487 6.12197 40.1015 6.8987C40.8766 7.65276 41.4742 8.5699 41.8508 9.58359C42.365 10.9733 42.6364 12.4411 42.6533 13.9228C42.7674 16.3833 42.7902 17.1249 42.7902 23.3617C42.7902 29.5986 42.7674 30.3363 42.6533 32.8007C42.6368 34.2811 42.3654 35.7477 41.8508 37.136C41.4616 38.1429 40.866 39.0573 40.1024 39.8203C39.3387 40.5833 38.4238 41.1781 37.4166 41.5665C36.0278 42.0846 34.5596 42.3574 33.0774 42.3727C30.6169 42.4868 29.8753 42.5096 23.6385 42.5096C17.4016 42.5096 16.66 42.4868 14.1957 42.3727C12.7138 42.3546 11.246 42.0819 9.85655 41.5665C8.84093 41.1933 7.92208 40.5967 7.16786 39.8209C6.3925 39.0678 5.796 38.1503 5.4223 37.136C4.90687 35.7465 4.63415 34.2788 4.61607 32.7969C4.50578 30.3325 4.48297 29.5948 4.48297 23.3541C4.48297 17.1134 4.50578 16.3795 4.61607 13.9152C4.63187 12.433 4.90466 10.9649 5.4223 9.57598C5.796 8.56172 6.3925 7.64423 7.16786 6.89109C7.92269 6.11509 8.84127 5.51743 9.85655 5.14173C11.2465 4.6279 12.714 4.35523 14.1957 4.3355C16.352 4.24043 17.1849 4.21001 21.5392 4.2062V4.21001ZM36.1084 8.08903C35.5531 8.08903 35.0104 8.25373 34.5487 8.56229C34.0871 8.87085 33.7274 9.3094 33.5151 9.82246C33.3028 10.3355 33.2474 10.9 33.356 11.4445C33.4646 11.9891 33.7323 12.4892 34.1252 12.8815C34.5181 13.2739 35.0185 13.5409 35.5632 13.6487C36.1078 13.7566 36.6723 13.7005 37.185 13.4875C37.6978 13.2745 38.1359 12.9141 38.4438 12.4521C38.7518 11.9901 38.9157 11.4471 38.915 10.8918C38.915 10.5234 38.8423 10.1586 38.7013 9.81835C38.5602 9.47805 38.3534 9.16891 38.0927 8.9086C37.832 8.64828 37.5226 8.44191 37.1821 8.30128C36.8416 8.16065 36.4768 8.08853 36.1084 8.08903ZM23.6385 11.3672C21.2654 11.3672 18.9457 12.0709 16.9726 13.3893C14.9994 14.7077 13.4616 16.5815 12.5535 18.774C11.6453 20.9664 11.4077 23.3788 11.8707 25.7063C12.3336 28.0337 13.4764 30.1716 15.1544 31.8496C16.8324 33.5276 18.9703 34.6703 21.2977 35.1333C23.6252 35.5963 26.0376 35.3587 28.23 34.4505C30.4224 33.5424 32.2963 32.0046 33.6147 30.0314C34.9331 28.0583 35.6368 25.7386 35.6368 23.3655C35.6358 20.1837 34.3714 17.1324 32.1215 14.8825C29.8716 12.6326 26.8203 11.3682 23.6385 11.3672ZM23.6385 15.5771C25.1794 15.5748 26.6863 16.0297 27.9686 16.8841C29.2509 17.7385 30.251 18.9541 30.8422 20.3771C31.4334 21.8 31.5893 23.3664 31.2901 24.878C30.9909 26.3895 30.25 27.7784 29.1612 28.8687C28.0724 29.9591 26.6847 30.702 25.1735 31.0035C23.6624 31.3049 22.0958 31.1514 20.672 30.5622C19.2482 29.973 18.0311 28.9748 17.1748 27.6937C16.3185 26.4127 15.8614 24.9064 15.8614 23.3655C15.8654 21.3045 16.6862 19.3291 18.1439 17.8721C19.6017 16.4151 21.5775 15.5953 23.6385 15.5923V15.5771Z" fill="white"/>
</svg>
