<svg width="370" height="95" viewBox="0 0 370 95" fill="none" xmlns="http://www.w3.org/2000/svg">
<path d="M50.1919 35.5584C50.4207 35.5069 51.2254 35.4875 52.6062 35.5003C53.9858 35.4672 55.0205 35.4423 55.7103 35.4257C56.3989 35.3631 57.455 35.2687 58.8784 35.1425C60.3466 34.9691 61.6293 34.7312 62.7263 34.4288C63.8234 34.1263 65.0792 33.728 66.4937 33.2339C67.9542 32.7386 69.3884 32.106 70.7963 31.3359C72.2491 30.5187 73.6767 29.6102 75.079 28.6102C77.4294 26.8512 78.8551 24.9073 79.3561 22.7787C79.903 20.6489 79.3419 18.3617 77.6727 15.9171C77.4339 15.5548 77.1502 15.2395 76.8217 14.9713C76.538 14.6561 76.2089 14.3649 75.8344 14.0978C75.4599 13.8307 75.1094 13.6091 74.7831 13.4329C74.5028 13.2556 74.1075 13.081 73.5972 12.9092C73.1318 12.6904 72.76 12.5383 72.4819 12.4529C72.2027 12.3216 71.7619 12.1711 71.1597 12.0016C70.6034 11.8309 70.2097 11.7253 69.9787 11.6849C69.7925 11.5973 69.3524 11.4699 68.6581 11.3025C68.0099 11.134 67.6162 11.0285 67.4772 10.9858C65.4449 10.6666 63.5293 10.4135 61.7303 10.2267C59.9772 10.0388 58.2505 9.98829 56.5501 10.0752C55.8603 10.0918 55.1251 10.1325 54.3444 10.1972C53.6097 10.2609 52.9446 10.3459 52.349 10.4523C51.7523 10.5127 51.0187 10.6223 50.1483 10.7813C49.2767 10.8943 48.6121 11.0023 48.1545 11.1053C47.6957 11.1623 46.9627 11.295 45.9554 11.5033C44.9481 11.7116 44.2611 11.8431 43.8943 11.8979C42.9779 12.058 42.0401 12.2876 41.081 12.5868C40.1668 12.8388 39.2537 13.1368 38.3417 13.4809C37.4746 13.7778 36.6086 14.1207 35.7437 14.5096C34.9237 14.8514 34.0588 15.2403 33.149 15.6763C30.4186 16.9383 28.4211 18.0677 27.1567 19.0643C26.9312 19.2538 26.6833 19.4668 26.4129 19.7034C26.1885 19.9389 25.9186 20.1984 25.6033 20.4821C25.3341 20.7646 25.1097 21.0001 24.9301 21.1885C21.8389 24.6678 19.8973 28.1195 19.1054 31.5435C18.8975 32.4687 18.7354 34.3362 18.6189 37.1458C18.8586 41.3733 20.0765 45.1401 22.2726 48.4462C22.5125 48.8546 22.7518 49.2399 22.9906 49.6023C23.2742 49.9176 23.5108 50.188 23.7003 50.4135C23.8898 50.639 24.1263 50.9094 24.41 51.2247C24.6925 51.4939 24.928 51.7184 25.1164 51.8979C25.3507 52.0763 25.6563 52.345 26.033 52.7041C26.4098 53.0631 26.7164 53.3778 26.953 53.6482C29.2494 55.3875 30.3977 56.2572 30.3977 56.2572C36.8511 60.5653 44.775 64.7921 54.1694 68.9374C112.751 63.4797 163.649 60.8985 206.862 61.1938C207.553 61.2232 208.198 61.2307 208.795 61.2163C209.44 61.2468 209.878 61.2593 210.108 61.2538C210.385 61.2932 210.615 61.3106 210.799 61.3062C211.029 61.3007 211.259 61.2951 211.489 61.2896C211.766 61.329 211.996 61.3464 212.18 61.342C212.364 61.3376 212.755 61.3282 213.353 61.3138C213.952 61.3454 214.527 61.3546 215.079 61.3413C215.263 61.3369 215.701 61.3494 216.392 61.3788C217.082 61.4082 217.566 61.4196 217.842 61.4129C218.165 61.4512 218.579 61.4642 219.085 61.4521C219.592 61.4859 220.052 61.4978 220.466 61.4879C220.65 61.4835 220.972 61.4757 221.432 61.4647C221.938 61.4525 222.329 61.4431 222.605 61.4365C222.927 61.4287 223.226 61.4445 223.503 61.4839L223.85 61.5446C223.988 61.5413 224.126 61.5609 224.265 61.6036C224.45 61.6452 224.612 61.6873 224.751 61.7299C224.798 61.7748 224.823 61.8203 224.824 61.8662C224.736 62.0524 224.628 62.3311 224.499 62.7023C224.416 63.0724 224.308 63.3971 224.177 63.6763C224.093 64.0004 223.961 64.2797 223.783 64.514C223.739 64.6071 223.671 64.6318 223.578 64.588C223.532 64.5891 223.439 64.5683 223.3 64.5256C223.207 64.4819 223.161 64.46 223.161 64.46C222.838 64.4217 222.584 64.4048 222.4 64.4092C222.078 64.417 220.951 64.4211 219.018 64.4215C218.421 64.4359 217.064 64.4685 214.949 64.5194C213.478 64.6008 212.561 64.7148 212.196 64.8617C212.013 64.9121 211.739 64.9877 211.373 65.0885C210.871 65.2386 210.475 65.0411 210.186 64.4959C209.896 63.9507 209.838 63.4459 210.011 62.9816C209.826 62.9401 209.549 62.9007 209.18 62.8636C208.858 62.8713 208.582 62.855 208.351 62.8145C208.167 62.8189 207.913 62.802 207.59 62.7638C207.314 62.7704 207.061 62.7535 206.83 62.713C189.15 62.2639 165.05 62.7053 134.529 64.0374C104.055 65.4143 77.757 67.266 55.6345 69.5924C58.4247 70.8137 61.2883 72.2173 64.2252 73.8031C66.2303 74.9052 67.5625 75.7705 68.2218 76.3988C68.363 76.5334 68.5043 76.6681 68.6456 76.8027C68.788 76.9834 68.9304 77.164 69.0728 77.3446C69.2622 77.5701 69.4046 77.7508 69.4999 77.8865C69.5492 78.0234 69.6232 78.2286 69.7218 78.5024C69.8664 78.775 69.9633 78.9797 70.0126 79.1165C70.063 79.2994 70.114 79.5052 70.1655 79.734C70.2641 80.0077 70.2932 80.2601 70.2527 80.4912C70.2583 80.7211 70.2413 80.9746 70.202 81.2516C70.1178 81.5757 69.9645 81.9015 69.7423 82.2289C69.5661 82.5553 69.3434 82.8597 69.0741 83.1423C68.8519 83.4697 68.5832 83.7752 68.2679 84.0589C67.9986 84.3415 67.7058 84.6016 67.3894 84.8392C67.073 85.0769 66.7561 85.2916 66.4386 85.4833C66.1211 85.675 65.8267 85.8661 65.5552 86.0567C65.2825 86.2013 64.987 86.3464 64.6684 86.4921C64.3498 86.6378 63.9852 86.7846 63.5746 86.9326C63.2112 87.1253 62.9386 87.2699 62.7568 87.3663C60.6569 88.061 59.607 88.4083 59.607 88.4083C58.8307 88.6571 57.6187 88.9623 55.9709 89.324C51.2104 90.3587 46.7865 91.0403 42.6992 91.3686C42.6992 91.3686 41.0908 91.4533 37.8739 91.6227C37.644 91.6282 37.0456 91.6196 36.0788 91.5968C35.1131 91.6201 34.4693 91.6355 34.1474 91.6433C33.8255 91.651 33.2271 91.6424 32.3522 91.6174C31.4785 91.6384 30.8341 91.6309 30.4191 91.5949C30.0512 91.6037 29.4529 91.5951 28.624 91.569C27.8422 91.5878 27.2208 91.5798 26.7599 91.5448C26.2989 91.5099 25.7 91.4783 24.9631 91.45C24.2722 91.4206 23.6502 91.3895 23.0973 91.3568C22.5443 91.3241 21.9449 91.2695 21.2988 91.193C20.6539 91.1625 20.0314 91.1084 19.4314 91.0308C19.1084 90.9926 18.7158 90.933 18.2538 90.8521C17.7917 90.7712 17.2371 90.6695 16.5899 90.547C15.9439 90.4705 15.4129 90.3912 14.9968 90.3092C14.6267 90.2261 14.0485 90.102 13.2623 89.9368C12.5232 89.8165 12.1307 89.757 12.0847 89.7581C9.12494 89.139 6.71262 88.3228 4.84772 87.3093C4.38122 87.0445 4.0078 86.8234 3.72745 86.6461C3.44822 86.5147 3.16621 86.2684 2.88145 85.9072C2.59779 85.5919 2.35901 85.2295 2.16511 84.8201C2.1147 84.6372 2.06374 84.4314 2.01222 84.2026C2.0078 84.0186 1.97983 83.8122 1.92831 83.5834C1.92279 83.3535 1.91836 83.1695 1.91505 83.0316L1.91339 82.9626C1.95606 82.8235 2.02117 82.6609 2.10872 82.4748C2.19627 82.2886 2.26083 82.103 2.30239 81.9179C2.39105 81.7778 2.47915 81.6146 2.5667 81.4285C2.70134 81.2872 2.81299 81.1464 2.90165 81.0063C4.15389 79.5037 6.92314 77.9417 11.2094 76.3202C12.0305 76.0244 12.6688 75.779 13.1243 75.584C13.6268 75.4339 14.0604 75.2854 14.4249 75.1386C14.7906 75.0378 15.1563 74.9369 15.522 74.8361C15.9336 74.7342 16.2763 74.6339 16.55 74.5353C16.8708 74.4816 17.3969 74.3539 18.1283 74.1523C18.8608 73.9966 19.5702 73.8415 20.2567 73.687C28.1288 71.9333 38.2161 70.4483 50.5184 69.2323C42.4665 65.4227 35.4033 61.5894 29.3288 57.7323C29.3288 57.7323 28.0886 56.8649 25.6082 55.13L25.6065 55.061C25.324 54.7917 24.9013 54.4338 24.3384 53.9872C23.8203 53.4935 23.4436 53.1344 23.2081 52.91C23.0187 52.6845 22.7356 52.3922 22.3588 52.0332C21.981 51.6282 21.6497 51.245 21.3649 50.8838C21.079 50.4765 20.7455 50.0014 20.3644 49.4584C17.9788 45.9267 16.6365 41.7718 16.3376 36.9936C16.5416 33.9978 16.7689 31.9678 17.0194 30.9034C17.8955 27.1553 20.0363 23.3767 23.4417 19.5678C25.1539 18.0542 26.0099 17.2974 26.0099 17.2974C27.2754 16.3467 29.3873 15.1916 32.3454 13.8321C33.1184 13.4454 33.8464 13.1058 34.5296 12.8133C35.2128 12.5208 35.9419 12.2272 36.717 11.9325C37.4922 11.6378 38.2224 11.3901 38.9078 11.1896C39.6381 10.942 40.3924 10.7398 41.1709 10.583C41.9942 10.3792 42.7951 10.1989 43.5736 10.0421C50.0334 8.87449 54.3664 8.24116 56.5727 8.14209C59.8815 7.97051 63.6831 8.20119 67.9776 8.83414C69.458 9.16665 70.5919 9.43848 71.3792 9.64961C72.1665 9.86075 73.1635 10.1819 74.3702 10.613C75.6229 11.043 76.6714 11.593 77.5158 12.2629C78.4061 12.9317 79.2072 13.7176 79.9191 14.6208C81.1097 16.2946 81.8393 17.9336 82.108 19.5376C82.3788 21.2336 82.1197 22.8963 81.3307 24.5257C80.5865 26.108 79.47 27.5153 77.9812 28.7474C76.5383 29.9785 74.8179 31.1472 72.8199 32.2535C70.822 33.3599 68.8201 34.3053 66.8144 35.0897C64.8547 35.873 62.8473 36.5885 60.7922 37.2361C58.7821 37.8366 57.0911 38.3143 55.7192 38.6694C54.3463 38.9785 53.2246 39.2126 52.3541 39.3715C51.5297 39.5294 50.8404 39.569 50.2864 39.4903C49.7312 39.3656 49.2894 39.1691 48.9608 38.901C48.6772 38.5857 48.4849 38.2452 48.3841 37.8795C48.2789 37.3299 48.3817 36.8213 48.6925 36.3537C49.0483 35.839 49.548 35.5739 50.1919 35.5584ZM51.7093 69.9629C39.6391 71.2654 29.2826 73.0328 20.6398 75.2652C20.0464 75.4636 19.315 75.6652 18.4457 75.8702C17.6234 76.12 17.0749 76.2712 16.8001 76.3238C16.5264 76.4224 16.1158 76.5704 15.5684 76.7676C15.021 76.9648 14.4736 77.162 13.9262 77.3592C13.4247 77.5553 12.787 77.8237 12.013 78.1644C8.59824 79.673 6.152 81.2732 4.67425 82.9652C4.54292 83.2445 4.47781 83.4071 4.47892 83.4531C4.53707 83.9578 4.96311 84.4537 5.75705 84.9408C5.85013 84.9846 5.92021 85.0289 5.96731 85.0738C7.60227 86.0928 9.78576 86.9605 12.5178 87.6771C16.1739 88.5554 18.5325 89.0509 19.5935 89.1634C20.4257 89.3274 21.2798 89.4449 22.1558 89.5159C23.0317 89.5869 23.9301 89.6343 24.851 89.6582C25.7729 89.728 26.6023 89.7771 27.3392 89.8054C28.1221 89.8326 29.0199 89.857 30.0328 89.8787C31.0456 89.9003 31.8739 89.9034 32.5177 89.8879C33.2086 89.9173 34.1059 89.9188 35.2096 89.8922C36.3592 89.8646 37.2106 89.8671 37.7635 89.8998C38.1314 89.891 38.6367 89.8558 39.2794 89.7944C39.9232 89.7789 40.4975 89.7421 41.0022 89.6839C41.5081 89.6718 41.991 89.6602 42.4508 89.6491C49.2458 89.0256 55.676 87.5826 61.7413 85.3202C63.3321 84.4997 64.1275 84.0894 64.1275 84.0894C64.3541 83.946 64.6929 83.6847 65.1439 83.3058C65.596 82.9728 66.0465 82.5709 66.4953 82.0999C66.9901 81.6279 67.3037 81.2753 67.4362 81.042C67.5248 80.9019 67.5675 80.7628 67.5642 80.6248C67.5609 80.4869 67.5581 80.3719 67.5559 80.2799C67.5537 80.188 67.5268 80.0276 67.4753 79.7987C67.4249 79.6159 67.3991 79.5015 67.398 79.4555C67.3498 79.3646 67.2775 79.2283 67.1811 79.0466C67.0858 78.9108 66.9905 78.7751 66.8952 78.6393C66.847 78.5485 66.7759 78.4582 66.6817 78.3684C66.1143 77.7378 64.9201 76.8693 63.099 75.7628C60.3427 74.0345 57.3362 72.4273 54.0795 70.9412C53.8462 70.8087 53.567 70.6774 53.2418 70.5472C52.9177 70.463 52.616 70.3552 52.3367 70.2239C52.1046 70.1374 51.8955 70.0504 51.7093 69.9629ZM37.7635 89.8998L37.8325 89.8982L37.7635 89.8998ZM57.8245 43.5882C57.4577 43.6431 56.7488 43.8212 55.6977 44.1225C54.6456 44.3779 53.8211 44.5358 53.2244 44.5961C52.9518 44.7407 52.8139 44.744 52.8105 44.6061C52.6277 44.6565 52.4437 44.6609 52.2587 44.6193C52.3014 44.4803 52.3429 44.2952 52.3834 44.0642C52.3779 43.8342 52.3959 43.6267 52.4374 43.4417C52.433 43.2577 52.4516 43.0732 52.4931 42.8882C52.5336 42.6572 52.5976 42.4486 52.6852 42.2624C52.6841 42.2164 52.776 42.2142 52.9611 42.2558C53.1001 42.2984 53.1921 42.2962 53.237 42.2491C53.283 42.248 53.352 42.2464 53.4439 42.2442C53.4888 42.1971 53.5573 42.1724 53.6492 42.1702C53.7401 42.122 53.808 42.0744 53.8528 42.0273C54.0357 41.9769 54.3105 41.9242 54.6773 41.8694C55.043 41.7686 55.3178 41.716 55.5017 41.7115C55.7295 41.614 57.2376 41.1867 60.0262 40.4294C63.3163 39.476 65.4425 38.9188 66.4049 38.7576C66.4957 38.7094 67.8474 38.4698 70.4598 38.0389C71.8338 37.7758 73.2545 37.5346 74.7216 37.3153C74.7216 37.3153 74.8485 36.8521 75.1023 35.9257C75.355 34.9534 75.5213 34.2131 75.6011 33.7051C75.8111 32.8718 76.0347 31.6471 76.272 30.0309C76.5541 28.3676 76.8406 26.8883 77.1315 25.5929C77.4225 24.2976 77.7846 23.0925 78.2179 21.9778C78.7837 20.6298 79.1569 19.8846 79.3375 19.7422C80.6906 18.6054 81.6629 18.8581 82.2546 20.5003C82.3028 20.5912 82.3067 20.7522 82.2662 20.9832C82.2695 21.1211 82.2717 21.2131 82.2728 21.2591C82.2751 21.3511 82.2559 21.5126 82.2155 21.7436C82.1739 21.9287 82.1312 22.0677 82.0875 22.1608C82.0886 22.2068 82.0678 22.2993 82.0251 22.4384C81.9813 22.5315 81.9376 22.6246 81.8938 22.7176C81.896 22.8096 81.8982 22.9016 81.9004 22.9936C81.7746 23.5027 81.6555 24.2878 81.5429 25.3488C81.4293 26.3639 81.2905 27.2875 81.1264 28.1196C80.9613 28.9058 80.726 29.6477 80.4207 30.3453C79.7281 32.1564 78.8603 34.3399 77.8174 36.8957C79.6514 36.6216 81.6922 36.3424 83.9401 36.0583C86.9226 35.7105 91.1703 35.3553 96.6831 34.9927C97.097 34.9827 98.0167 34.9606 99.4423 34.9263C100.913 34.845 102.13 34.7467 103.093 34.6315C103.093 34.6315 103.896 34.5202 105.501 34.2975C108.029 34.1907 110.163 33.9324 111.901 33.5225C111.948 33.5673 112.064 33.6106 112.249 33.6521C112.434 33.6937 112.597 33.7358 112.736 33.7785C112.875 33.8211 112.991 33.8874 113.085 33.9771C113.227 34.1118 113.323 34.2705 113.373 34.4533C113.468 34.5891 113.495 34.7495 113.454 34.9345C113.457 35.0725 113.437 35.211 113.395 35.3501C113.397 35.4421 113.331 35.5587 113.196 35.7C113.107 35.8401 113.041 35.9568 112.997 36.0498C112.953 36.1429 112.864 36.2601 112.73 36.4014C112.594 36.4967 112.527 36.5673 112.528 36.6133C112.346 36.7097 112.163 36.7371 111.977 36.6955C111.792 36.654 111.606 36.5664 111.419 36.4329C111.232 36.2993 111.09 36.1417 110.994 35.96C109.616 36.0851 107.845 36.1047 105.68 36.0187C103.338 36.2131 101.478 36.3268 100.098 36.36C99.7301 36.3688 99.1782 36.3821 98.4425 36.3998C97.7056 36.3715 97.1532 36.3618 96.7853 36.3706C91.9567 36.4867 87.7303 36.7724 84.1062 37.2277C81.6745 37.5162 79.4042 37.8239 77.2954 38.1506C75.5566 42.3797 74.4913 44.959 74.0995 45.8887C73.9244 46.261 73.7274 46.6799 73.5086 47.1453C71.8239 53.6276 70.9187 57.1234 70.7929 57.6326C70.6682 58.1877 70.48 58.9745 70.2284 59.9928C70.0228 61.0101 69.8796 61.7497 69.7986 62.2118C69.4224 63.7853 68.7502 66.4472 67.782 70.1976C67.1442 72.3755 66.8253 73.4645 66.8253 73.4645C66.485 74.623 66.1858 75.5735 65.9276 76.3159C65.6671 76.9664 64.7151 79.474 63.0716 83.8387C62.7685 84.6283 62.2911 84.8698 61.6396 84.5634C60.7559 84.1705 60.5952 83.2311 61.1577 81.7451L61.2217 81.5365C61.6583 80.5598 62.0179 80.206 62.3005 80.4753C64.4399 75.6845 65.8039 72.1317 66.3925 69.8169C66.4778 69.5387 66.6064 69.1445 66.7782 68.6343C66.951 68.17 67.0785 67.7298 67.1605 67.3137C67.2896 66.9425 67.4187 66.5713 67.5479 66.2001C67.6321 65.8759 68.3896 62.9359 69.8205 57.3799C69.9441 56.7787 70.0896 56.131 70.2569 55.4368C70.4703 54.7415 70.6601 54.0237 70.8263 53.2835C71.0375 52.4962 71.2284 51.8244 71.399 51.2682C70.6931 52.5275 70.2537 53.3893 70.0808 53.8536C69.6902 54.8293 69.2701 56.4958 68.8206 58.8533C68.6926 59.2705 68.351 59.4168 67.7959 59.2921C67.2407 59.1674 66.9576 58.8751 66.9466 58.4153C66.9804 57.9083 67.0596 57.3772 67.1843 56.8221C67.3079 56.2209 67.4348 55.7578 67.565 55.4325C67.6942 55.0613 67.8452 54.6436 68.018 54.1793C68.2369 53.7139 68.3682 53.4346 68.412 53.3416C68.5838 52.8313 69.241 51.4581 70.3836 49.222C71.0435 47.9638 71.7697 46.5889 72.5621 45.0974C72.6047 44.9584 72.6698 44.7957 72.7574 44.6096C72.8449 44.4234 72.9325 44.2373 73.02 44.0511C73.1076 43.865 73.1957 43.7018 73.2843 43.5616C73.3664 43.1455 73.4495 42.7754 73.5337 42.4513C73.618 42.1272 73.7415 41.526 73.9045 40.6479C74.1134 39.7686 74.2813 39.0974 74.4082 38.6342C73.125 38.8491 71.8878 39.0629 70.6966 39.2756C68.59 39.6943 67.2855 39.9788 66.783 40.1289C66.0056 40.3316 63.9046 40.9803 60.4799 42.075C59.9785 42.2711 59.2252 42.5193 58.2202 42.8195C58.2301 43.2334 58.0982 43.4896 57.8245 43.5882ZM79.772 23.4589C79.2905 24.4827 78.9026 25.5734 78.6083 26.7308C78.3129 27.8422 77.9996 29.1611 77.6681 30.6875C77.3816 32.1668 77.1552 33.2766 76.989 34.0168C76.8621 34.48 76.7144 35.0357 76.5459 35.6839C77.5001 33.2683 78.2574 31.2715 78.8176 29.6936C78.9467 29.3224 79.0753 28.9282 79.2033 28.511C79.3313 28.0938 79.4133 27.6777 79.4493 27.2627C79.5303 26.8006 79.5668 26.4086 79.5591 26.0867C79.5962 25.7177 79.6317 25.2798 79.6655 24.7728C79.6983 24.2199 79.7337 23.7819 79.772 23.4589ZM79.8953 54.3768C81.4905 53.7403 82.4227 53.2808 82.692 52.9982C82.405 52.545 81.5734 52.4039 80.1971 52.5751C79.6004 52.6354 79.1898 52.7833 78.9654 53.0188C78.787 53.2531 78.7717 53.5756 78.9196 53.9862C79.0664 54.3507 79.2795 54.5987 79.5587 54.73C79.6014 54.591 79.7136 54.4732 79.8953 54.3768ZM104.253 56.9661C102.505 57.0081 100.256 57.2462 97.5058 57.6805C94.7555 58.1147 92.3724 58.5171 90.3568 58.8877C88.386 59.2111 86.2706 59.262 84.0106 59.0403C81.7966 58.8174 79.963 58.1483 78.5098 57.0329C77.0587 56.0095 76.3621 54.7839 76.4198 53.3561C76.3965 52.3904 76.8842 51.6194 77.8826 51.0432C78.835 50.4682 79.9556 50.1882 81.2444 50.2032C82.5331 50.2182 83.5767 50.5612 84.375 51.2322C85.0321 51.7686 85.3196 52.2448 85.2376 52.6609C85.1567 53.123 84.9143 53.566 84.5103 53.9898C84.1064 54.4136 83.6318 54.7701 83.0866 55.0593C82.5414 55.3485 81.9491 55.5928 81.3097 55.7922C81.6538 56.7042 82.497 57.3281 83.8395 57.664C85.1808 57.9538 86.7926 58.0071 88.6747 57.8238C90.6017 57.5934 92.4816 57.3181 94.3145 56.998C96.1922 56.6307 98.0923 56.24 100.015 55.8256C101.984 55.4102 103.358 55.1701 104.139 55.1053C105.276 54.5718 105.992 54.6696 106.285 55.3988C106.53 55.9911 106.288 56.457 105.56 56.7966C105.195 56.9434 104.76 56.9999 104.253 56.9661ZM109.007 56.9208C108.923 57.2449 108.841 57.638 108.76 58.1001C108.679 58.5622 108.596 58.9553 108.512 59.2794C108.428 59.6035 108.388 59.8575 108.392 60.0415C107.661 62.1757 107.231 63.4054 107.101 63.7306C106.665 64.7533 105.94 66.1742 104.925 67.9931C103.957 69.8109 103.275 71.1157 102.88 71.9074C102.753 72.3706 102.583 72.9498 102.369 73.6452C102.156 74.3405 101.965 74.9893 101.795 75.5915C101.626 76.1938 101.432 76.7506 101.214 77.262C101.215 77.308 101.193 77.3545 101.148 77.4016C101.155 77.6775 101.138 77.908 101.096 78.0931C101.015 78.5551 100.775 79.0901 100.375 79.6979C100.235 79.6092 100.026 79.4992 99.7463 79.3679C99.4222 79.2836 99.1435 79.1753 98.9102 79.0429C98.677 78.9105 98.4892 78.7539 98.3468 78.5733C98.2975 78.4364 98.2947 78.3215 98.3385 78.2284C98.3374 78.1824 98.4036 78.0658 98.5371 77.8785C98.6258 77.7383 98.6926 77.6447 98.7375 77.5976C98.8688 77.3184 99.0444 76.9691 99.2644 76.5496C99.4939 74.6116 99.6978 73.5254 99.8763 73.291C100.003 72.8278 100.215 72.0635 100.511 70.9981C100.809 69.9786 101.043 69.1908 101.214 68.6345C101.76 66.4588 102.385 63.7749 103.091 60.5831C103.046 60.6302 103.001 60.6772 102.956 60.7243C102.729 60.8678 102.476 60.8509 102.196 60.6736C101.868 60.4514 101.678 60.1799 101.624 59.8591C101.524 59.5394 101.587 59.2848 101.813 59.0954C102.492 58.6649 103.103 58.2131 103.644 57.7399C103.688 57.6929 103.772 57.3457 103.895 56.6986C104.735 53.3655 105.579 50.2162 106.428 47.251C107.447 43.6835 108.063 41.575 108.278 40.9257C108.321 40.8326 108.363 40.6476 108.402 40.3705C108.488 40.0924 108.552 39.8838 108.594 39.7447C108.637 39.6057 108.702 39.4431 108.79 39.2569C108.876 39.0248 108.964 38.8386 109.052 38.6984C109.186 38.5112 109.343 38.3463 109.524 38.204C110.064 37.7308 111.099 37.683 112.626 38.0603C113.328 38.5496 113.803 39.1824 114.052 39.9586C114.347 40.7338 114.458 41.5133 114.384 42.2973C114.31 43.0353 114.101 43.9146 113.758 44.9351C113.459 45.9086 113.134 46.7446 112.783 47.4433C112.477 48.1408 112.105 48.932 111.666 49.8168C111.226 50.6556 110.963 51.1911 110.877 51.4233C109.684 53.4765 109.021 54.5968 108.887 54.7841C108.888 54.83 108.866 54.8536 108.82 54.8547C111.83 55.6566 114.65 56.2329 117.282 56.5838C119.958 56.8875 122.214 56.9713 124.052 56.8351C125.889 56.6989 127.403 56.5245 128.594 56.3118C129.832 56.098 130.93 55.8415 131.889 55.5424C132.894 55.2421 133.442 55.0679 133.533 55.0197C133.757 54.7842 133.96 54.6183 134.142 54.5219C134.324 54.4255 134.461 54.3762 134.553 54.374L134.691 54.3707C135.375 54.1242 135.861 54.2505 136.149 54.7497C136.534 55.4307 136.087 55.9936 134.809 56.4384L134.468 56.5847C132.412 57.1863 130.237 57.6297 127.943 57.9149C125.694 58.153 123.234 58.2122 120.562 58.0924C117.935 57.9255 115.999 57.788 114.754 57.6799C113.554 57.5247 111.639 57.2716 109.007 56.9208ZM106.808 57.3188C106.314 57.7908 105.683 58.3581 104.917 59.0207C104.39 61.9782 103.792 64.8684 103.124 67.6913C104.227 65.7322 105.017 64.1488 105.494 62.941C105.621 62.4778 105.812 61.829 106.068 60.9946C106.323 60.1142 106.472 59.6045 106.515 59.4654C106.555 59.2344 106.596 59.0033 106.636 58.7723C106.676 58.4953 106.715 58.2413 106.756 58.0102C106.795 57.7332 106.813 57.5027 106.808 57.3188ZM106.302 53.4658C106.625 53.5041 106.972 53.5877 107.343 53.7169C107.52 53.4365 108.139 52.3633 109.198 50.4973C109.287 50.3572 109.44 50.0544 109.659 49.589C109.924 49.1225 110.1 48.7962 110.188 48.61C110.276 48.4238 110.429 48.1211 110.649 47.7016C110.868 47.2363 111.021 46.8875 111.107 46.6553C111.194 46.4232 111.301 46.1215 111.431 45.7503C111.605 45.332 111.734 44.9838 111.82 44.7056C111.904 44.3815 111.965 44.035 112.002 43.666C112.085 43.2959 112.145 42.9263 112.182 42.5573C112.19 40.9927 111.896 40.2175 111.298 40.2319C110.93 40.2407 110.573 40.6865 110.226 41.5691C109.749 42.7769 109.039 44.8415 108.097 47.763C107.451 49.6191 106.853 51.52 106.302 53.4658ZM144.367 57.3819C145.709 57.6718 146.908 57.804 147.966 57.7785C149.07 57.752 150.354 57.5831 151.819 57.2718C153.329 56.9134 154.632 56.56 155.728 56.2115C156.87 55.862 158.149 55.4861 159.566 55.0839C160.981 54.6358 162.17 54.3311 163.133 54.1699C165.01 53.8027 166.006 54.0548 166.119 54.9264C166.224 55.476 165.957 55.8735 165.319 56.1189C164.999 56.2187 164.676 56.1804 164.35 56.0042C162.836 56.1786 160.567 56.5553 157.544 57.1341C154.566 57.6659 152.688 58.0101 151.91 58.1669C151.589 58.2206 150.902 58.3521 149.848 58.5615C148.841 58.7698 147.948 58.9523 147.17 59.1091C146.436 59.2187 145.632 59.2611 144.757 59.2361C143.882 59.2111 143.211 59.0432 142.743 58.7324C141.901 58.1544 141.878 57.1657 142.672 55.7662C142.355 55.9579 142.083 56.1255 141.856 56.269C141.674 56.3654 141.516 56.4612 141.38 56.5565C141.289 56.6047 141.199 56.6759 141.109 56.7701C141.064 56.8172 141.019 56.8413 140.973 56.8424C140.973 56.8424 140.95 56.8659 140.905 56.913C140.859 56.9141 140.836 56.9147 140.836 56.9147C140.836 56.9147 140.768 56.9393 140.631 56.9886C140.54 57.0368 140.449 57.085 140.358 57.1332C140.267 57.1814 140.109 57.2773 139.882 57.4208C139.654 57.5183 139.404 57.6393 139.132 57.7839C137.671 58.2792 136.299 58.6342 135.016 58.8491C134.971 58.8962 134.811 58.9461 134.537 58.9987C134.262 59.0513 134.055 59.0793 133.917 59.0826C133.317 59.005 132.784 58.8338 132.318 58.5689C132.318 58.5689 132.244 58.3636 132.096 57.9531C132.093 57.8611 132.091 57.7461 132.087 57.6082C132.038 57.4713 132.013 57.3799 132.012 57.3339C132.01 57.242 132.007 57.127 132.003 56.989C132.087 56.6189 132.262 56.2696 132.53 55.9411C132.799 55.6125 133 55.3776 133.135 55.2363C133.315 55.0939 133.678 54.8782 134.223 54.589C134.768 54.2538 135.062 54.0627 135.107 54.0156C135.243 53.9203 135.469 53.7538 135.785 53.5161C136.1 53.2325 136.394 52.9953 136.665 52.8048C136.937 52.6142 137.186 52.4701 137.414 52.3726C138.006 52.1283 138.876 51.9464 140.024 51.8267C141.217 51.706 142.02 51.5947 142.431 51.4928C142.891 51.4817 143.129 51.7981 143.144 52.4419C143.16 53.0857 142.938 53.4132 142.478 53.4242C142.294 53.4286 141.858 53.4851 141.17 53.5937C140.482 53.6563 139.909 53.7391 139.451 53.8421C138.993 53.9451 138.56 54.1166 138.152 54.3565C138.016 54.4518 137.836 54.6171 137.612 54.8526C137.432 55.041 137.297 55.1593 137.206 55.2074C137.115 55.2556 137.025 55.3268 136.935 55.421C136.844 55.4692 136.731 55.541 136.595 55.6363C136.504 55.6845 136.437 55.7321 136.392 55.7792C136.302 55.8734 136.052 56.0174 135.643 56.2113C135.279 56.4041 135.007 56.5717 134.827 56.7141C135.928 56.5956 137.141 56.3363 138.466 55.9364C138.739 55.7918 139.012 55.6702 139.285 55.5716C139.604 55.4259 139.786 55.3525 139.832 55.3514C139.877 55.3043 139.968 55.2561 140.105 55.2068C140.241 55.1115 140.331 55.0403 140.376 54.9932C140.421 54.9461 140.557 54.8508 140.783 54.7073C141.056 54.5627 141.328 54.3951 141.599 54.2046C141.69 54.1564 141.917 54.0359 142.281 53.8431C142.643 53.6043 142.915 53.4137 143.095 53.2713C143.413 53.0796 143.842 52.7472 144.383 52.2741C144.923 51.801 145.353 51.4685 145.67 51.2769C146.077 50.991 146.466 50.8896 146.836 50.9727C147.205 51.0099 147.51 51.2326 147.749 51.641C147.988 52.0033 148.021 52.3937 147.847 52.812C147.76 53.0441 147.65 53.2538 147.517 53.4411C147.428 53.5813 147.362 53.6979 147.318 53.791C147.273 53.8381 147.115 53.9569 146.843 54.1475C146.618 54.337 146.46 54.4788 146.371 54.573C145.874 54.953 145.206 55.8894 144.367 57.3819ZM173.119 49.5816C173.071 49.4907 173.023 49.3998 172.975 49.309C172.8 49.6813 172.668 49.9375 172.579 50.0777C172.357 50.4051 172.044 50.8037 171.641 51.2736C171.238 51.6974 170.991 51.9794 170.903 52.1196C169.741 53.5739 168.851 54.8377 168.233 55.9108C167.48 57.1253 167.059 57.8026 166.97 57.9428C166.927 58.0359 166.862 58.1985 166.775 58.4306C166.734 58.6157 166.691 58.7547 166.647 58.8478C166.647 58.8478 166.603 58.9409 166.516 59.127C166.473 59.2661 166.407 59.3827 166.317 59.4769C166.272 59.524 166.204 59.5487 166.112 59.5509C165.882 59.5564 165.651 59.5159 165.419 59.4295C165.231 59.296 164.998 59.1635 164.719 59.0322C164.485 58.8538 164.298 58.7432 164.159 58.7006L164.088 58.6333C163.893 58.1778 163.792 57.7891 163.784 57.4672C163.772 56.9614 163.828 56.4309 163.953 55.8757C164.076 55.2746 164.245 54.6493 164.46 54C164.673 53.3047 164.822 52.7719 164.905 52.4018C165.036 52.1226 165.263 52.0021 165.586 52.0403C165.908 52.0326 166.187 52.1409 166.422 52.3653C166.704 52.5886 166.802 52.8394 166.716 53.1175C166.629 53.3036 166.52 53.5823 166.391 53.9535C166.261 54.2788 166.154 54.6034 166.07 54.9276C165.985 55.2517 165.901 55.5528 165.815 55.8309C165.95 55.6897 166.084 55.5024 166.216 55.2691C166.393 54.9888 166.504 54.8251 166.549 54.778C167.26 53.7026 168.172 52.4153 169.286 50.9161C170.269 49.6961 170.914 48.7603 171.22 48.1088C171.89 47.2644 172.294 46.8176 172.43 46.7683C173.529 46.5118 174.343 46.8834 174.873 47.8829C174.873 47.8829 174.972 48.1796 175.17 48.773C175.614 50.0047 176.145 51.0502 176.764 51.9096C177.383 52.769 178.112 53.4416 178.952 53.9276C179.792 54.4135 180.675 54.7834 181.602 55.0372C182.574 55.2899 183.659 55.4249 184.855 55.4421C186.097 55.4123 187.315 55.36 188.51 55.2852C189.749 55.1634 191.148 54.9917 192.708 54.7702C194.313 54.5475 195.849 54.3266 197.316 54.1072C198.829 53.8868 200.55 53.6844 202.478 53.5C204.405 53.2696 206.242 53.1334 207.99 53.0914C210.228 52.3934 211.496 52.5239 211.795 53.483C211.948 54.0775 211.683 54.567 211.002 54.9515C210.775 55.049 210.5 55.1016 210.178 55.1093C206.215 54.8825 202.582 54.9469 199.277 55.3024C195.972 55.612 192.918 55.8695 190.116 56.0749C187.359 56.2332 184.898 56.2693 182.734 56.1834C180.615 56.0963 178.715 55.5208 177.033 54.4569C175.396 53.3919 174.092 51.7668 173.119 49.5816ZM261.167 57.8865C260.958 58.7658 260.771 59.5755 260.605 60.3157C260.479 60.8249 260.312 61.5421 260.104 62.4674C259.942 63.3915 259.82 64.0616 259.738 64.4777L258.856 67.95C258.856 67.95 258.857 67.9959 258.859 68.0879C258.693 68.8281 258.507 69.7298 258.303 70.7931C258.107 72.2242 258.009 72.9397 258.009 72.9397C257.965 73.0328 257.924 73.2179 257.885 73.4949C258.15 73.0744 258.503 72.4447 258.943 71.6059C259.206 71.0474 259.381 70.6521 259.467 70.42C259.554 70.1878 259.662 69.9091 259.792 69.5839C259.922 69.2587 259.986 69.0501 259.984 68.9581C260.029 68.911 260.114 68.6329 260.24 68.1237C260.367 67.6605 260.495 67.2433 260.624 66.8721C261.158 64.1905 261.373 61.6776 261.271 59.3334C261.257 58.7356 261.222 58.2533 261.167 57.8865ZM268.673 28.4416C262.287 36.5094 258.826 40.8948 258.291 41.5979C257.309 42.8639 256.438 43.9661 255.679 44.9047C254.965 45.8421 254.452 46.5216 254.14 46.9432C253.827 47.3189 253.671 47.5067 253.671 47.5067C255.662 48.057 257.359 48.7524 258.759 49.593C259.128 49.6301 259.658 49.6634 260.349 49.6928C261.04 49.7222 261.5 49.7341 261.73 49.7286C261.776 49.7275 261.845 49.7258 261.937 49.7236C262.454 48.2388 262.992 46.7074 263.552 45.1295C265.055 40.6301 266.145 37.1988 266.825 34.8358C266.912 34.6497 267.528 32.5182 268.673 28.4416ZM281.522 5.97719C281.203 6.0769 280.997 6.15086 280.907 6.19906C280.316 6.53534 279.864 6.8683 279.55 7.19795C279.146 7.62178 278.766 8.09105 278.411 8.60575C278.054 9.07446 277.699 9.61216 277.345 10.2188C277.038 10.8244 276.774 11.3369 276.554 11.7563C276.38 12.1746 276.118 12.7791 275.769 13.5697C275.465 14.3132 275.248 14.8476 275.118 15.1728C274.987 15.498 274.791 15.9629 274.53 16.5673C274.268 17.1718 274.029 17.7297 273.811 18.2411C273.639 18.7514 273.466 19.2157 273.292 19.634C273.251 19.819 273.186 20.0046 273.099 20.1908C273.367 19.8622 273.567 19.5584 273.698 19.2791C276.056 15.9095 277.768 13.4526 278.835 11.9085C280.478 9.43029 281.374 7.45319 281.522 5.97719ZM284.166 3.98106C284.406 4.38941 284.402 5.17174 284.154 6.32804C283.738 8.17857 282.503 10.4169 280.45 13.043C280.138 13.4646 279.313 14.5428 277.974 16.2775C276.68 17.9651 275.676 19.2776 274.963 20.215C274.605 20.6377 274.048 21.3873 273.291 22.4638C272.534 23.4943 271.932 24.291 271.485 24.8539C271.485 24.8539 271.463 24.8775 271.418 24.9246C271.419 24.9705 271.42 24.9935 271.42 24.9935C271.075 25.9681 270.5 27.8915 269.695 30.7637C268.888 33.5899 268.442 35.096 268.354 35.2822C267.633 37.8303 266.543 41.2845 265.083 45.6448C264.566 47.0837 264.093 48.4754 263.665 49.8201L263.086 51.5595C262.87 52.1629 262.677 52.7427 262.506 53.299C262.893 54.0719 263.136 54.6182 263.236 54.9379C263.536 55.943 263.71 57.4342 263.758 59.4117C263.76 61.4362 263.457 64.1352 262.848 67.5089C262.808 67.7399 262.745 68.0175 262.661 68.3416C262.578 68.7117 262.494 69.0358 262.408 69.314C262.324 69.6381 262.239 69.9392 262.154 70.2173C261.81 71.2379 261.224 72.7014 260.396 74.6079C259.743 76.142 259.213 77.075 258.807 77.4069C258.807 77.4069 258.33 77.6484 257.375 78.1315C257.236 78.0888 257.051 78.0473 256.82 78.0068C256.635 77.9652 256.449 77.9007 256.263 77.8131C256.078 77.7716 255.915 77.7065 255.775 77.6178C255.541 77.4394 255.301 77.031 255.055 76.3927C254.956 76.073 254.965 75.4977 255.083 74.6666C255.247 73.8344 255.433 72.9557 255.641 72.0304C255.894 71.104 256.019 70.5259 256.013 70.296C256.182 69.6477 256.479 68.6283 256.906 67.2376C257.333 65.847 257.652 64.781 257.864 64.0397C257.945 63.5776 258.09 62.8839 258.297 61.9586C258.551 61.0323 258.742 60.3375 258.868 59.8743C259.288 58.2077 259.776 56.4705 260.331 54.6627C260.137 54.2532 260.016 54.026 259.969 53.9812C259.164 53.0342 258.178 52.2297 257.012 51.5675C256.644 51.5764 256.23 51.5633 255.769 51.5284C255.354 51.4924 254.893 51.4574 254.386 51.4236C253.878 51.3438 253.486 51.3072 253.21 51.3139C253.071 51.2712 252.748 51.2329 252.241 51.1991C251.734 51.1653 251.319 51.1293 250.996 51.091C250.417 51.8872 249.793 52.7304 249.124 53.6207C246.492 57.043 240.908 64.0102 232.372 74.5225C229.432 78.5503 227.649 80.9399 227.023 81.6911C226.754 82.0197 225.881 83.0069 224.402 84.653C224.684 84.8763 224.806 85.1954 224.77 85.6104C224.734 86.0254 224.536 86.3983 224.176 86.729C223.225 87.3501 222.749 87.6606 222.749 87.6606C222.703 87.6617 222.657 87.6858 222.613 87.7329C222.568 87.78 222.5 87.8276 222.409 87.8758C222.273 87.9711 222.16 88.0658 222.071 88.16C221.935 88.2553 221.799 88.3506 221.663 88.4459C221.528 88.5412 221.415 88.6359 221.325 88.7301C221.189 88.8254 221.076 88.8971 220.985 88.9453C220.894 88.9935 220.849 89.0176 220.849 89.0176C219.981 89.2686 219.404 89.2134 219.119 88.8522C218.789 88.492 218.731 88.0103 218.947 87.4069C219.116 86.8046 219.402 86.2456 219.804 85.7298C220.428 84.8866 221.437 83.827 222.833 82.5511C224.183 81.2763 225.037 80.4505 225.396 80.0737C226.069 79.3674 227.949 77.1595 231.035 73.4503C233.588 70.5821 234.888 69.1244 234.933 69.0773C239.545 63.8129 243.972 58.438 248.211 52.9525C248.613 52.4367 249.125 51.7572 249.749 50.9139C248.318 50.7183 247.092 50.4487 246.072 50.1051C244.588 49.6346 243.769 49.0561 243.614 48.3697C243.611 48.2317 243.607 48.0707 243.603 47.8868C243.644 47.7017 243.686 47.5167 243.728 47.3316C243.814 47.0995 243.879 46.9139 243.921 46.7748C244.012 46.7266 244.148 46.6543 244.33 46.5579C244.511 46.4156 244.669 46.2967 244.805 46.2014C244.986 46.105 245.169 46.0316 245.352 45.9812C245.444 45.979 245.929 46.0594 246.807 46.2223C247.27 46.3492 247.986 46.47 248.955 46.5848C249.924 46.6995 250.64 46.8203 251.103 46.9472C251.611 47.027 252.097 47.1074 252.559 47.1883C253.585 45.8753 255.238 43.7879 257.516 40.9264C265.146 31.0341 269.184 25.7835 269.629 25.1746C269.8 24.6184 269.907 24.2707 269.949 24.1316C269.99 23.9006 270.547 22.2077 271.622 19.053C271.795 18.5887 271.967 18.1014 272.139 17.5911C272.311 17.0808 272.504 16.501 272.718 15.8517C272.933 15.2023 273.105 14.7151 273.235 14.3898C273.365 14.0646 273.56 13.5538 273.82 12.8573C274.079 12.1609 274.274 11.6501 274.404 11.3248C274.534 10.9996 274.73 10.5348 274.992 9.93032C275.253 9.32586 275.472 8.86046 275.648 8.53413C275.869 8.16071 276.112 7.74075 276.377 7.27425C276.687 6.76065 276.999 6.33903 277.313 6.00938C277.626 5.63375 277.985 5.25701 278.39 4.87917C278.794 4.45533 279.222 4.07694 279.674 3.74397C280.308 3.31461 280.762 3.05063 281.036 2.95202C282.589 2.50054 283.633 2.84356 284.166 3.98106ZM280.307 54.1133C281.648 54.4032 282.848 54.5354 283.905 54.5099C285.009 54.4834 286.293 54.3145 287.758 54.0032C289.268 53.6448 290.571 53.2914 291.667 52.9429C292.809 52.5934 294.088 52.2175 295.505 51.8153C296.92 51.3672 298.11 51.0625 299.072 50.9013C300.95 50.5341 301.945 50.7862 302.058 51.6578C302.163 52.2074 301.897 52.6049 301.258 52.8503C300.939 52.95 300.616 52.9118 300.289 52.7356C298.775 52.91 296.507 53.2867 293.484 53.8655C290.505 54.3972 288.627 54.7415 287.849 54.8983C287.528 54.952 286.841 55.0835 285.788 55.2929C284.78 55.5012 283.887 55.6837 283.109 55.8405C282.375 55.9501 281.571 55.9925 280.696 55.9675C279.822 55.9425 279.15 55.7746 278.683 55.4638C277.841 54.8858 277.817 53.8971 278.611 52.4976C278.294 52.6893 278.022 52.8569 277.795 53.0004C277.613 53.0968 277.455 53.1926 277.319 53.2879C277.228 53.3361 277.138 53.4073 277.048 53.5015C277.003 53.5486 276.958 53.5727 276.912 53.5738C276.912 53.5738 276.889 53.5973 276.844 53.6444C276.798 53.6455 276.775 53.6461 276.775 53.6461C276.775 53.6461 276.707 53.6707 276.57 53.72C276.479 53.7682 276.388 53.8164 276.298 53.8646C276.207 53.9128 276.048 54.0087 275.821 54.1522C275.594 54.2497 275.343 54.3707 275.071 54.5153C273.61 55.0105 272.238 55.3656 270.955 55.5805C270.91 55.6276 270.751 55.6775 270.476 55.7301C270.201 55.7827 269.995 55.8107 269.857 55.814C269.257 55.7364 268.723 55.5652 268.257 55.3003C268.257 55.3003 268.183 55.095 268.035 54.6845C268.033 54.5925 268.03 54.4775 268.027 54.3396C267.977 54.2027 267.952 54.1113 267.951 54.0653C267.949 53.9733 267.946 53.8584 267.943 53.7204C268.026 53.3503 268.201 53.001 268.47 52.6724C268.738 52.3439 268.939 52.109 269.074 51.9677C269.255 51.8253 269.617 51.6095 270.163 51.3204C270.707 50.9852 271.001 50.794 271.046 50.747C271.182 50.6517 271.408 50.4852 271.724 50.2475C272.04 49.9638 272.333 49.7267 272.604 49.5361C272.876 49.3456 273.126 49.2015 273.353 49.104C273.946 48.8597 274.815 48.6777 275.963 48.5581C277.156 48.4374 277.959 48.3261 278.371 48.2242C278.83 48.2131 279.068 48.5295 279.084 49.1733C279.099 49.8171 278.877 50.1445 278.417 50.1556C278.233 50.16 277.797 50.2165 277.11 50.3251C276.421 50.3876 275.848 50.4705 275.39 50.5735C274.933 50.6765 274.5 50.848 274.091 51.0879C273.955 51.1831 273.775 51.3485 273.551 51.584C273.371 51.7724 273.236 51.8906 273.145 51.9388C273.054 51.987 272.964 52.0582 272.874 52.1524C272.784 52.2006 272.67 52.2724 272.534 52.3676C272.444 52.4158 272.376 52.4635 272.331 52.5106C272.241 52.6048 271.992 52.7488 271.582 52.9427C271.219 53.1355 270.947 53.3031 270.766 53.4455C271.867 53.327 273.08 53.0677 274.405 52.6678C274.678 52.5232 274.951 52.4016 275.225 52.303C275.543 52.1573 275.726 52.0839 275.772 52.0827C275.816 52.0357 275.907 51.9875 276.044 51.9382C276.18 51.8429 276.27 51.7717 276.315 51.7246C276.36 51.6775 276.496 51.5822 276.722 51.4387C276.995 51.2941 277.267 51.1265 277.539 50.9359C277.629 50.8877 277.857 50.7673 278.22 50.5745C278.582 50.3357 278.854 50.1451 279.035 50.0027C279.352 49.811 279.781 49.4786 280.322 49.0055C280.863 48.5323 281.292 48.1999 281.609 48.0082C282.017 47.7224 282.405 47.621 282.775 47.7041C283.144 47.7413 283.449 47.964 283.689 48.3724C283.927 48.7347 283.96 49.1251 283.786 49.5434C283.699 49.7755 283.589 49.9852 283.456 50.1725C283.367 50.3127 283.301 50.4293 283.257 50.5224C283.212 50.5695 283.054 50.6883 282.783 50.8789C282.557 51.0683 282.4 51.2102 282.31 51.3044C281.813 51.6844 281.145 52.6207 280.307 54.1133ZM301.382 60.0254C300.972 60.2193 300.563 60.4362 300.155 60.6761C299.111 61.2534 298.295 61.7561 297.707 62.1844C297.934 62.0869 298.14 62.0129 298.323 61.9625C298.413 61.9143 298.55 61.842 298.731 61.7456C298.914 61.6952 299.074 61.6224 299.209 61.5271C299.346 61.4778 299.459 61.406 299.549 61.3119C300.048 61.0238 300.659 60.595 301.382 60.0254ZM297.175 48.6693C297.516 47.5568 299.001 47.1069 301.629 47.3198C302.135 47.3537 302.353 47.8085 302.283 48.6845C302.21 49.5145 301.898 49.9131 301.345 49.8804C301.207 49.8837 301.045 49.8416 300.859 49.754C300.813 49.7551 300.698 49.7579 300.514 49.7623C300.376 49.7656 300.261 49.7684 300.169 49.7706C300.17 49.8166 300.194 49.862 300.241 49.9069C300.288 49.9518 300.85 50.3294 301.925 51.0398C302.065 51.1284 302.182 51.2176 302.277 51.3074C302.417 51.3961 302.557 51.4847 302.697 51.5734C302.837 51.662 302.931 51.7518 302.98 51.8427C303.073 51.8864 303.166 51.9532 303.261 52.043C303.401 52.1316 303.518 52.2208 303.612 52.3106C303.705 52.3544 303.799 52.4211 303.893 52.5109C304.932 53.6362 305.537 54.8641 305.707 56.1944C305.709 56.2863 305.713 56.4243 305.717 56.6082C310.466 55.1136 315.426 53.729 320.594 52.4544C325.763 51.1798 329.451 50.493 331.657 50.3939C332.199 49.9668 332.861 49.7668 333.644 49.794C334.427 49.8212 334.96 49.9694 335.242 50.2387C335.385 50.4193 335.413 50.6487 335.328 50.9268C335.287 51.1579 335.109 51.3692 334.791 51.5609C334.474 51.7526 334.084 51.831 333.623 51.796C331.505 51.7089 329.367 51.8064 327.212 52.0883C325.055 52.3242 322.628 52.8196 319.931 53.5747C317.233 54.2837 315.063 54.9111 313.42 55.4568C311.822 56.0013 309.358 56.8428 306.026 57.9812C305.89 58.0765 305.731 58.1493 305.548 58.1998C305.507 58.3848 305.441 58.5244 305.351 58.6186C305.045 59.2702 304.396 60.022 303.404 60.8741C302.459 61.771 301.578 62.4594 300.762 62.9392C300.762 62.9392 300.239 63.2048 299.193 63.7361C299.193 63.7361 299.011 63.8095 298.647 63.9563C298.283 64.1491 298.01 64.2707 297.827 64.3211C297.599 64.4186 297.303 64.5408 296.939 64.6876C296.528 64.8355 296.208 64.9122 295.978 64.9177C295.703 64.9704 295.427 64.977 295.15 64.9376C294.828 64.9454 294.573 64.8595 294.385 64.68C294.196 64.5004 294.053 64.2738 293.954 64.0001C293.697 62.856 294.725 61.6119 297.039 60.2679C297.447 59.982 298.197 59.5959 299.289 59.1095C300.882 58.381 302.317 57.7713 303.594 57.2805C303.578 56.6367 303.545 56.2003 303.493 55.9715C303.147 54.9675 302.598 54.1525 301.847 53.5264C301.847 53.5264 301.707 53.4607 301.428 53.3294C301.194 53.151 301.006 53.0174 300.866 52.9288C300.679 52.7952 300.306 52.5971 299.748 52.3345C299.188 52.0259 298.815 51.8048 298.627 51.6712C298.393 51.4928 298.134 51.269 297.852 50.9997C297.522 50.6855 297.307 50.3456 297.206 49.9799C297.104 49.5682 297.094 49.1314 297.175 48.6693ZM334.39 59.2318C333.98 59.4257 333.572 59.6426 333.163 59.8824C332.119 60.4597 331.303 60.9625 330.715 61.3907C330.942 61.2932 331.148 61.2193 331.331 61.1689C331.421 61.1207 331.558 61.0484 331.739 60.952C331.922 60.9016 332.082 60.8287 332.217 60.7334C332.354 60.6841 332.468 60.6124 332.557 60.5182C333.057 60.2301 333.667 59.8013 334.39 59.2318ZM330.183 47.8756C330.524 46.7631 332.009 46.3133 334.637 46.5262C335.144 46.56 335.362 47.0149 335.291 47.8908C335.218 48.7208 334.906 49.1194 334.353 49.0867C334.215 49.09 334.053 49.0479 333.867 48.9604C333.821 48.9615 333.706 48.9642 333.522 48.9687C333.384 48.972 333.269 48.9747 333.177 48.977C333.178 49.0229 333.202 49.0684 333.249 49.1133C333.296 49.1581 333.858 49.5358 334.933 50.2461C335.073 50.3348 335.19 50.424 335.285 50.5137C335.425 50.6024 335.565 50.6911 335.705 50.7797C335.845 50.8684 335.939 50.9581 335.988 51.049C336.081 51.0928 336.174 51.1595 336.269 51.2493C336.409 51.338 336.526 51.4272 336.62 51.5169C336.713 51.5607 336.807 51.6275 336.901 51.7172C337.94 52.8426 338.545 54.0704 338.715 55.4007C338.717 55.4927 338.721 55.6306 338.725 55.8146C343.474 54.32 348.434 52.9354 353.602 51.6608C358.771 50.3861 362.459 49.6993 364.665 49.6002C365.207 49.1731 365.869 48.9731 366.652 49.0003C367.435 49.0275 367.968 49.1757 368.25 49.445C368.393 49.6256 368.421 49.855 368.336 50.1332C368.296 50.3642 368.117 50.5756 367.799 50.7672C367.482 50.9589 367.092 51.0373 366.631 51.0024C364.513 50.9153 362.375 51.0127 360.22 51.2946C358.063 51.5305 355.636 52.026 352.939 52.781C350.241 53.4901 348.071 54.1174 346.428 54.6631C344.83 55.2076 342.366 56.0491 339.034 57.1875C338.898 57.2828 338.739 57.3557 338.556 57.4061C338.515 57.5911 338.449 57.7308 338.359 57.8249C338.053 58.4765 337.404 59.2283 336.412 60.0804C335.467 60.9774 334.586 61.6657 333.77 62.1455C333.77 62.1455 333.247 62.4112 332.201 62.9424C332.201 62.9424 332.019 63.0158 331.655 63.1627C331.291 63.3554 331.018 63.477 330.835 63.5275C330.607 63.625 330.311 63.7471 329.947 63.8939C329.536 64.0418 329.216 64.1186 328.986 64.1241C328.711 64.1767 328.435 64.1833 328.158 64.144C327.836 64.1517 327.581 64.0658 327.393 63.8863C327.204 63.7068 327.061 63.4802 326.962 63.2065C326.705 62.0623 327.733 60.8182 330.047 59.4742C330.455 59.1883 331.205 58.8022 332.297 58.3158C333.89 57.5873 335.325 56.9776 336.602 56.4868C336.586 55.843 336.553 55.4067 336.501 55.1778C336.155 54.1739 335.606 53.3588 334.855 52.7327C334.855 52.7327 334.715 52.667 334.436 52.5357C334.202 52.3573 334.014 52.2238 333.874 52.1351C333.687 52.0016 333.314 51.8035 332.756 51.5408C332.196 51.2322 331.823 51.0111 331.635 50.8776C331.401 50.6991 331.142 50.4753 330.86 50.206C330.53 49.8918 330.315 49.5519 330.214 49.1862C330.112 48.7746 330.102 48.3377 330.183 47.8756Z" fill="#FFC700"/>
</svg>
