<svg width="90" height="90" viewBox="0 0 90 90" fill="none" xmlns="http://www.w3.org/2000/svg">
<path d="M33.75 65.25L65.25 45L33.75 24.75V65.25ZM45 90C38.775 90 32.925 88.818 27.45 86.454C21.975 84.093 17.2125 80.8875 13.1625 76.8375C9.1125 72.7875 5.907 68.025 3.546 62.55C1.182 57.075 0 51.225 0 45C0 38.775 1.182 32.925 3.546 27.45C5.907 21.975 9.1125 17.2125 13.1625 13.1625C17.2125 9.1125 21.975 5.9055 27.45 3.5415C32.925 1.1805 38.775 0 45 0C51.225 0 57.075 1.1805 62.55 3.5415C68.025 5.9055 72.7875 9.1125 76.8375 13.1625C80.8875 17.2125 84.093 21.975 86.454 27.45C88.818 32.925 90 38.775 90 45C90 51.225 88.818 57.075 86.454 62.55C84.093 68.025 80.8875 72.7875 76.8375 76.8375C72.7875 80.8875 68.025 84.093 62.55 86.454C57.075 88.818 51.225 90 45 90Z" fill="white"/>
</svg>
