<svg width="38" height="37" viewBox="0 0 38 37" fill="none" xmlns="http://www.w3.org/2000/svg">
<path d="M32.4351 5.41848C28.8464 1.92438 24.0751 0 19 0C13.9249 0 9.15361 1.92438 5.56492 5.41848C1.97639 8.91273 0 13.5585 0 18.5C0 23.4415 1.97639 28.0873 5.56492 31.5815C9.15361 35.0756 13.9249 37 19 37C24.0751 37 28.8464 35.0756 32.4351 31.5815C36.0236 28.0873 38 23.4415 38 18.5C38 13.5585 36.0236 8.91273 32.4351 5.41848ZM19 34.7113C9.81944 34.7113 2.35052 27.439 2.35052 18.5C2.35052 9.56103 9.81944 2.28866 19 2.28866C28.1806 2.28866 35.6495 9.56103 35.6495 18.5C35.6495 27.439 28.1806 34.7113 19 34.7113Z" fill="white"/>
<path d="M14.1862 25.6768L26.9477 18.5L14.1862 11.3231V25.6768Z" fill="white"/>
</svg>
